<?xml version="1.0" encoding="UTF-8" standalone="no"?>
<svg
   xmlns:dc="http://purl.org/dc/elements/1.1/"
   xmlns:cc="http://creativecommons.org/ns#"
   xmlns:rdf="http://www.w3.org/1999/02/22-rdf-syntax-ns#"
   xmlns:svg="http://www.w3.org/2000/svg"
   xmlns="http://www.w3.org/2000/svg"
   xmlns:sodipodi="http://sodipodi.sourceforge.net/DTD/sodipodi-0.dtd"
   xmlns:inkscape="http://www.inkscape.org/namespaces/inkscape"
   width="512"
   height="512"
   viewBox="0 0 135.46666 135.46667"
   version="1.1"
   id="svg8"
   inkscape:version="1.0.2 (e86c870879, 2021-01-15, custom)"
   sodipodi:docname="chat_vesouris.svg">
  <defs
     id="defs2" />
  <sodipodi:namedview
     id="base"
     pagecolor="#ffffff"
     bordercolor="#666666"
     borderopacity="1.0"
     inkscape:pageopacity="0.0"
     inkscape:pageshadow="2"
     inkscape:zoom="0.60974149"
     inkscape:cx="153.84411"
     inkscape:cy="215.20674"
     inkscape:document-units="mm"
     inkscape:current-layer="layer1"
     inkscape:document-rotation="0"
     showgrid="true"
     units="px"
     inkscape:snap-bbox="true"
     inkscape:bbox-paths="false"
     inkscape:snap-bbox-edge-midpoints="true"
     inkscape:window-width="1918"
     inkscape:window-height="1058"
     inkscape:window-x="0"
     inkscape:window-y="20"
     inkscape:window-maximized="0">
    <inkscape:grid
       type="xygrid"
       id="grid10"
       spacingx="2.1166666"
       spacingy="2.1166666"
       empspacing="4"
       enabled="true" />
  </sodipodi:namedview>
  <metadata
     id="metadata5">
    <rdf:RDF>
      <cc:Work
         rdf:about="">
        <dc:format>image/svg+xml</dc:format>
        <dc:type
           rdf:resource="http://purl.org/dc/dcmitype/StillImage" />
        <dc:title></dc:title>
      </cc:Work>
    </rdf:RDF>
  </metadata>
  <g
     inkscape:label="Layer 1"
     inkscape:groupmode="layer"
     id="layer1">
    <g
       id="g3984"
       transform="translate(1.5999987e-6,6.3499992)">
      <path
         style="font-variation-settings:normal;opacity:1;vector-effect:none;fill:#683b35;fill-opacity:1;stroke:#000000;stroke-width:2.11667;stroke-linecap:round;stroke-linejoin:round;stroke-miterlimit:4;stroke-dasharray:none;stroke-dashoffset:0;stroke-opacity:1;stop-color:#000000;stop-opacity:1"
         d="m 25.400006,59.266665 c 0,-25.399999 0,-50.7999982 8.46666,-57.1499984 C 38.100002,21.166666 48.683335,14.816666 59.26667,29.633333"
         id="path3966"
         sodipodi:nodetypes="ccc" />
      <path
         style="font-variation-settings:normal;opacity:1;vector-effect:none;fill:#683b35;fill-opacity:1;stroke:#000000;stroke-width:2.11667;stroke-linecap:round;stroke-linejoin:round;stroke-miterlimit:4;stroke-dasharray:none;stroke-dashoffset:0;stroke-opacity:1;stop-color:#000000;stop-opacity:1"
         d="m 110.06666,59.266665 c 0,-25.399999 0,-50.7999986 -8.46666,-57.1499984 C 97.366664,21.166666 86.783331,14.816666 76.199996,29.633333"
         id="path3919"
         sodipodi:nodetypes="ccc" />
      <path
         style="font-variation-settings:normal;opacity:1;vector-effect:none;fill:#683b35;fill-opacity:1;stroke:#000000;stroke-width:2.11667;stroke-linecap:round;stroke-linejoin:round;stroke-miterlimit:4;stroke-dasharray:none;stroke-dashoffset:0;stroke-opacity:1;stop-color:#000000;stop-opacity:1"
         d="m 16.933333,93.13333 c 0,-25.399999 16.933333,-65.616664 50.799998,-65.616664 33.866669,0 50.799999,40.216665 50.799999,65.616664 0,33.86667 -101.599997,33.86667 -101.599997,0 z"
         id="path12"
         sodipodi:nodetypes="cccc" />
      <path
         id="rect3797"
         style="fill:#000000;fill-opacity:1;stroke:none;stroke-width:9.99999;stroke-linecap:round;stroke-linejoin:round;paint-order:stroke fill markers;stop-color:#000000"
         d="m 251.01172,191.81055 c -53.02245,0.18844 -106.2587,12.24136 -159.128908,37.57812 -15.276173,33.97876 -24.27268,70.22815 -26.990234,102.37695 129.596822,-34.8727 257.614502,-39.22101 382.210942,-0.043 -2.69067,-31.76899 -11.50749,-67.53964 -26.45899,-101.16407 -55.81355,-25.4293 -112.59929,-38.95074 -169.63281,-38.74804 z"
         transform="scale(0.26458333)" />
      <g
         id="g3858"
         transform="matrix(1.29241,0,0,1.2432551,-117.40875,-144.10276)">
        <ellipse
           style="fill:#808000;fill-opacity:1;stroke:none;stroke-width:1.73692;stroke-linecap:round;stroke-linejoin:round;paint-order:stroke fill markers;stop-color:#000000"
           id="path3837"
           ry="7.4117165"
           rx="8.4666653"
           cy="170.38828"
           cx="156.63333" />
        <path
           id="path3851"
           style="fill:#280b0b;fill-opacity:1;stroke:none;stroke-width:6.03531;stroke-linecap:round;stroke-linejoin:round;paint-order:stroke fill markers;stop-color:#000000"
           d="m 161.24066,170.39166 a 4.6073298,7.4083324 0 0 1 -4.60733,7.40833 4.6073298,7.4083324 0 0 1 -4.60733,-7.40833 4.6073298,7.4083324 0 0 1 4.60733,-7.40833 4.6073298,7.4083324 0 0 1 4.60733,7.40833 z" />
      </g>
      <g
         id="g3864"
         transform="matrix(1.29241,0,0,1.2432551,-151.23904,-144.10697)">
        <ellipse
           style="fill:#808000;fill-opacity:1;stroke:none;stroke-width:1.73692;stroke-linecap:round;stroke-linejoin:round;paint-order:stroke fill markers;stop-color:#000000"
           id="ellipse3860"
           ry="7.4117165"
           rx="8.4666653"
           cy="170.38828"
           cx="156.63333" />
        <path
           id="path3862"
           style="fill:#280b0b;fill-opacity:1;stroke:none;stroke-width:6.03531;stroke-linecap:round;stroke-linejoin:round;paint-order:stroke fill markers;stop-color:#000000"
           d="m 161.24066,170.39166 a 4.6073298,7.4083324 0 0 1 -4.60733,7.40833 4.6073298,7.4083324 0 0 1 -4.60733,-7.40833 4.6073298,7.4083324 0 0 1 4.60733,-7.40833 4.6073298,7.4083324 0 0 1 4.60733,7.40833 z" />
      </g>
      <ellipse
         style="fill:#ffffff;fill-opacity:1;stroke:none;stroke-width:2.29136;stroke-linecap:round;stroke-linejoin:round;paint-order:stroke fill markers;stop-color:#000000"
         id="path3824-3"
         cx="81.491661"
         cy="63.499996"
         rx="3.174999"
         ry="2.1166685" />
      <ellipse
         style="fill:#ffffff;fill-opacity:1;stroke:none;stroke-width:2.29136;stroke-linecap:round;stroke-linejoin:round;paint-order:stroke fill markers;stop-color:#000000"
         id="ellipse3886"
         cx="46.566666"
         cy="63.5"
         rx="3.174999"
         ry="2.1166685" />
      <path
         id="path3888"
         style="fill:#280b0b;fill-opacity:1;stroke:none;stroke-width:2.64583;stroke-linecap:round;stroke-linejoin:round;paint-order:stroke fill markers;stop-color:#000000"
         d="M 47.290652,84.908508 A 24.341667,19.049999 0 0 0 43.391665,95.249997 24.341667,19.049999 0 0 0 67.733331,114.3 24.341667,19.049999 0 0 0 92.074998,95.249997 24.341667,19.049999 0 0 0 88.17601,84.908508 24.341663,17.991666 0 0 1 67.733331,93.13333 24.341663,17.991666 0 0 1 47.290652,84.908508 Z" />
      <ellipse
         style="fill:#2e2343;fill-opacity:1;stroke:none;stroke-width:2.82851;stroke-linecap:round;stroke-linejoin:round;paint-order:stroke fill markers;stop-color:#000000"
         id="path3896"
         cx="67.73333"
         cy="107.95"
         rx="10.583334"
         ry="4.2333326" />
      <path
         style="font-variation-settings:normal;opacity:1;vector-effect:none;fill:#683b35;fill-opacity:1;stroke:none;stroke-width:0.264583px;stroke-linecap:butt;stroke-linejoin:miter;stroke-miterlimit:4;stroke-dasharray:none;stroke-dashoffset:0;stroke-opacity:1;stop-color:#000000;stop-opacity:1"
         d="m 74.08333,91.016663 2.116666,8.466666 4.233334,-10.583333"
         id="path3898" />
      <path
         style="font-variation-settings:normal;opacity:1;vector-effect:none;fill:#683b35;fill-opacity:1;stroke:none;stroke-width:0.264583px;stroke-linecap:butt;stroke-linejoin:miter;stroke-miterlimit:4;stroke-dasharray:none;stroke-dashoffset:0;stroke-opacity:1;stop-color:#000000;stop-opacity:1"
         d="M 61.383332,92.074998 59.266666,100.54166 55.033332,89.958332"
         id="path3917" />
    </g>
  </g>
</svg>
